<svg xmlns="http://www.w3.org/2000/svg" width="25" height="25" viewBox="0 0 21 21"><path fill="#833AB4" fill-rule="nonzero" stroke="none" stroke-width="1" d="M17.685 11.91c-1.99 0-2.78.152-3.595.587a3.816 3.816 0 00-1.593 1.593c-.435.816-.588 1.605-.588 3.595v5.63c0 1.99.153 2.78.588 3.595.37.689.904 1.224 1.593 1.593.816.435 1.605.588 3.595.588h5.63c1.99 0 2.78-.153 3.595-.588a3.816 3.816 0 001.593-1.593c.435-.816.588-1.605.588-3.595v-5.63c0-1.99-.153-2.78-.588-3.595a3.816 3.816 0 00-1.593-1.593c-.816-.435-1.605-.588-3.595-.588h-5.63zm0-1.91h5.63c2.278 0 3.365.21 4.495.814a5.725 5.725 0 012.376 2.376c.604 1.13.814 2.217.814 4.495v5.63c0 2.278-.21 3.365-.814 4.495a5.725 5.725 0 01-2.376 2.376c-1.13.604-2.217.814-4.495.814h-5.63c-2.278 0-3.365-.21-4.495-.814a5.725 5.725 0 01-2.376-2.376C10.21 26.68 10 25.593 10 23.315v-5.63c0-2.278.21-3.365.814-4.495a5.725 5.725 0 012.376-2.376c1.13-.604 2.217-.814 4.495-.814zM20.5 25.91a5.41 5.41 0 110-10.82 5.41 5.41 0 010 10.82zm0-1.91a3.5 3.5 0 100-7 3.5 3.5 0 000 7zm5.568-7.795a1.273 1.273 0 110-2.546 1.273 1.273 0 010 2.546z" transform="translate(-35 -1283) translate(25 1273)"></path></svg>