<svg xmlns="http://www.w3.org/2000/svg" width="25" height="25" viewBox="0 0 21 21"><path fill="#0077B5" fill-rule="evenodd" stroke="none" stroke-width="1" d="M14.768 29.073V15.529h-4.502v13.544h4.502zM12.517 13.68c1.57 0 2.547-1.04 2.547-2.34-.03-1.329-.977-2.34-2.517-2.34S10 10.011 10 11.34c0 1.3.977 2.34 2.488 2.34h.029zm4.742 15.393h4.501v-7.564c0-.404.03-.809.148-1.098.326-.809 1.067-1.647 2.31-1.647 1.63 0 2.28 1.242 2.28 3.063v7.246H31v-7.766c0-4.16-2.22-6.096-5.183-6.096-2.428 0-3.494 1.358-4.087 2.282h.03V15.53H17.26c.059 1.27 0 13.544 0 13.544z" transform="translate(-35 -1226) translate(25 1217)"></path></svg>