<svg xmlns="http://www.w3.org/2000/svg" width="21" height="17" viewBox="0 0 21 17"><path fill="#007AFF" fill-rule="nonzero" stroke="none" stroke-width="1" id="mail" d="M1.72 2.897l8.78 5.68 8.78-5.68a1.42 1.42 0 00-1.402-1.194H3.122A1.42 1.42 0 001.72 2.897zM0 3.122A3.122 3.122 0 013.122 0h14.756A3.122 3.122 0 0121 3.122v10.443a3.122 3.122 0 01-3.122 3.121H3.122A3.122 3.122 0 010 13.565V3.122zm19.297 1.792l-8.335 5.393a.851.851 0 01-.924 0L1.703 4.914v8.65c0 .785.635 1.42 1.419 1.42h14.756c.784 0 1.42-.635 1.42-1.42v-8.65z" transform="translate(-64 -1216) translate(64 1216)"></path></svg>