 <svg
            xmlns="http://www.w3.org/2000/svg"
            width="25"
            height="25"
            viewBox="0 0 20 13"
          >
            <path
              fill="#1DA1F2"
              fill-rule="evenodd"
              stroke="none"
              stroke-width="1"
              d="M29.684 13.393a4.4 4.4 0 00-3.145-1.392 4.216 4.216 0 00-4.308 4.216c0 .336.038.663.111.978-3.58-.218-6.755-1.97-8.88-4.609a4.262 4.262 0 00-.583 2.164c0 1.499.76 2.83 1.916 3.615a4.313 4.313 0 01-1.951-.56v.055a4.354 4.354 0 003.456 4.258 4.305 4.305 0 01-1.946.062 4.332 4.332 0 004.025 3.01 8.646 8.646 0 01-5.351 1.83c-.348 0-.691-.021-1.028-.062a12.155 12.155 0 006.604 1.944c7.925.002 12.259-6.473 12.259-12.09 0-.185-.005-.368-.013-.55A8.555 8.555 0 0033 14.09a8.642 8.642 0 01-2.474.635 4.193 4.193 0 001.894-2.323 8.6 8.6 0 01-2.736.99z"
              transform="translate(-37 -1173) translate(25 1161)"
            ></path>
          </svg>